<svg width="28" height="28" viewBox="0 0 28 28" fill="none" xmlns="http://www.w3.org/2000/svg">
<path opacity="0.4" d="M13.9988 27.331C12.9735 27.331 11.9495 26.9417 11.1668 26.1643L10.1935 25.191C9.81612 24.815 9.31079 24.607 8.77479 24.6057H7.40546C5.19212 24.6057 3.39079 22.8043 3.39079 20.591V19.2203C3.38946 18.6857 3.18146 18.1803 2.80412 17.8003L1.84679 16.8443C0.27879 15.2857 0.272123 12.7377 1.83212 11.1683L2.80546 10.1937C3.18146 9.81632 3.38946 9.31099 3.39079 8.77499V7.40699C3.39079 5.19232 5.19212 3.39099 7.40546 3.39099H8.77612C9.31079 3.39099 9.81479 3.18299 10.1948 2.80299L11.1535 1.84699C12.7121 0.278986 15.2588 0.270986 16.8295 1.83232L17.8028 2.80565C18.1815 3.18299 18.6855 3.39099 19.2201 3.39099H20.5908C22.8041 3.39099 24.6055 5.19232 24.6055 7.40699V8.77632C24.6068 9.31099 24.8148 9.81632 25.1921 10.1963L26.1495 11.1537C26.9081 11.9083 27.3281 12.9137 27.3321 13.987C27.3348 15.0537 26.9241 16.0577 26.1761 16.8163C26.1628 16.8297 26.1508 16.8443 26.1375 16.8563L25.1908 17.803C24.8148 18.1803 24.6068 18.6857 24.6055 19.2217V20.591C24.6055 22.8043 22.8041 24.6057 20.5908 24.6057H19.2201C18.6855 24.607 18.1801 24.815 17.8015 25.1923L16.8428 26.1497C16.0615 26.9363 15.0295 27.331 13.9988 27.331Z" fill="#393939"/>
</svg>
